#!OML:ASF X:\für Bonn\!DataBase\2005_08_12_Daniel\c3d\Daniel.ASF
:FULLY-SPECIFIED
:DEGREES
143
root 2.60166 17.631 17.4875 -5.14254 13.8711 0.603578
lowerback 7.23661 2.3725 2.54886
upperback 0.603662 3.18596 -6.19145
thorax -2.93622 1.54371 -8.25914
lowerneck 2.12077 -4.77997 -0.12121
upperneck 19.7352 -6.93957 3.20647
head 5.73579 -3.1489 0.734433
rclavicle -1.76406e-014 1.27222e-014
rhumerus 52.0772 -0.96419 -55.116
rradius 29.9046
rwrist 14.0504
rhand 1.72064 5.35633
rfingers 7.12502
rthumb 27.2374 -22.6971
lclavicle -1.76406e-014 1.27222e-014
lhumerus -42.5796 49.2115 50.5122
lradius 14.9273
lwrist -51.4675
lhand -10.6268 -5.26591
lfingers 7.12502
lthumb 15.38 24.142
rfemur 5.67954 16.4435 21.1548
rtibia 18.5514
rfoot -27.1212 -25.2536
rtoes -9.62546
lfemur -1.50979 -17.4112 -19.1953
ltibia 27.7416
lfoot -20.8881 4.73857
ltoes -15.4217
144
root 2.60076 17.6302 17.4868 -5.1428 13.8885 0.602907
lowerback 7.23091 2.34357 2.49117
upperback 0.644509 3.14435 -6.17805
thorax -2.90092 1.52563 -8.20534
lowerneck 2.16706 -4.7295 -0.0712649
upperneck 20.0254 -6.87154 3.15601
head 5.81509 -3.10941 0.71201
rclavicle -6.80837e-015 -1.74931e-014
rhumerus 51.1323 -1.23698 -55.4216
rradius 31.6009
rwrist 13.1167
rhand 1.12117 5.68621
rfingers 7.12502
rthumb 26.6638 -22.4558
lclavicle -6.80837e-015 -1.74931e-014
lhumerus -42.2705 48.8817 50.972
lradius 15.0508
lwrist -50.9655
lhand -10.6163 -5.27373
lfingers 7.12502
lthumb 15.3901 24.1334
rfemur 5.6891 16.4653 21.1683
rtibia 18.5462
rfoot -27.147 -25.2838
rtoes -9.60427
lfemur -1.51932 -17.4119 -19.1887
ltibia 27.7427
lfoot -20.881 4.72139
ltoes -15.4253
145
root 2.59964 17.6298 17.4856 -5.14202 13.9149 0.603065
lowerback 7.23627 2.31148 2.42125
upperback 0.685482 3.09753 -6.16105
thorax -2.87326 1.50478 -8.14082
lowerneck 2.21895 -4.68124 0.00831405
upperneck 20.3 -6.80158 3.07642
head 5.88678 -3.06916 0.676002
rclavicle -4.24902e-014 -5.08889e-014
rhumerus 50.0658 -1.52065 -55.7123
rradius 33.522
rwrist 12.0199
rhand 0.614247 6.07568
rfingers 7.12502
rthumb 26.1786 -22.1392
lclavicle -4.24902e-014 -5.08889e-014
lhumerus -42.0018 48.6439 51.3682
lradius 15.1646
lwrist -50.5389
lhand -10.574 -5.39563
lfingers 7.12502
lthumb 15.4308 24.0084
rfemur 5.69248 16.4578 21.1705
rtibia 18.5467
rfoot -27.1962 -25.2782
rtoes -9.61059
lfemur -1.53332 -17.4504 -19.1849
ltibia 27.7424
lfoot -20.8729 4.71747
ltoes -15.3791
146
root 2.59837 17.6293 17.4845 -5.14074 13.9483 0.604777
lowerback 7.23804 2.28211 2.34352
upperback 0.730576 3.05398 -6.14363
thorax -2.83909 1.48592 -8.07121
lowerneck 2.29296 -4.63886 0.0587446
upperneck 20.5772 -6.742 3.0215
head 5.95787 -3.0346 0.652605
rclavicle -6.20643e-014 6.20208e-014
rhumerus 48.8281 -1.80953 -55.9135
rradius 35.7243
rwrist 10.6715
rhand 0.201005 6.477
rfingers 7.12502
rthumb 25.7829 -21.796
lclavicle -6.20643e-014 6.20208e-014
lhumerus -41.7037 48.3465 51.847
lradius 15.3192
lwrist -50.0175
lhand -10.5634 -5.5016
lfingers 7.12502
lthumb 15.441 23.9017
rfemur 5.69275 16.3952 21.1594
rtibia 18.5414
rfoot -27.1824 -25.2511
rtoes -9.55008
lfemur -1.55225 -17.4623 -19.1757
ltibia 27.7498
lfoot -20.8683 4.67947
ltoes -15.3308
147
root 2.59615 17.6285 17.4826 -5.13745 14.0073 0.616458
lowerback 7.24667 2.24374 2.22505
upperback 0.787407 2.99575 -6.11576
thorax -2.80134 1.46043 -7.96532
lowerneck 2.34196 -4.59426 0.128067
upperneck 20.8452 -6.67497 2.93769
head 6.02875 -2.99687 0.616737
rclavicle 1.30328e-014 1.27222e-014
rhumerus 47.4857 -2.06986 -55.9516
rradius 38.1876
rwrist 9.03285
rhand -0.0772965 6.87033
rfingers 7.12502
rthumb 25.5163 -21.441
lclavicle 1.30328e-014 1.27222e-014
lhumerus -41.3864 48.0559 52.372
lradius 15.4918
lwrist -49.4747
lhand -10.6008 -5.65356
lfingers 7.12502
lthumb 15.405 23.7525
rfemur 5.69209 16.3649 21.1514
rtibia 18.5412
rfoot -27.2109 -25.2685
rtoes -9.58526
lfemur -1.58254 -17.4753 -19.1691
ltibia 27.7569
lfoot -20.8533 4.61777
ltoes -15.2847
148
root 2.59304 17.6278 17.481 -5.14779 14.0573 0.604646
lowerback 7.26354 2.2083 2.12117
upperback 0.850702 2.94293 -6.08422
thorax -2.75981 1.43768 -7.86471
lowerneck 2.42466 -4.54582 0.20193
upperneck 21.0767 -6.60383 2.87348
head 6.08307 -2.95663 0.587722
rclavicle 2.79914e-014 -1.59028e-015
rhumerus 46.0009 -2.32884 -55.9009
rradius 40.9327
rwrist 7.16642
rhand -0.22811 7.2052
rfingers 7.12502
rthumb 25.3719 -21.1268
lclavicle 2.79914e-014 -1.59028e-015
lhumerus -40.9792 47.6747 53.0125
lradius 15.6645
lwrist -48.8093
lhand -10.6707 -5.79695
lfingers 7.12502
lthumb 15.3377 23.6142
rfemur 5.70689 16.335 21.172
rtibia 18.537
rfoot -27.2515 -25.267
rtoes -9.51362
lfemur -1.60934 -17.4602 -19.1351
ltibia 27.7753
lfoot -20.8423 4.54735
ltoes -15.2864
149
root 2.58948 17.6277 17.4783 -5.16118 14.1457 0.604307
lowerback 7.29391 2.16073 1.99228
upperback 0.922156 2.87211 -6.05288
thorax -2.72101 1.40613 -7.74889
lowerneck 2.4779 -4.49872 0.277097
upperneck 21.3476 -6.53557 2.80564
head 6.15507 -2.91672 0.555997
rclavicle 6.98231e-014 -1.59028e-014
rhumerus 44.4259 -2.6268 -55.8149
rradius 43.8554
rwrist 5.16562
rhand -0.219632 7.52958
rfingers 7.12502
rthumb 25.38 -20.8012
lclavicle 6.98231e-014 -1.59028e-014
lhumerus -40.5333 47.2354 53.7119
lradius 15.8522
lwrist -48.073
lhand -10.7417 -5.93206
lfingers 7.12502
lthumb 15.2694 23.4843
rfemur 5.71822 16.2336 21.1691
rtibia 18.5335
rfoot -27.2415 -25.2588
rtoes -9.5147
lfemur -1.64788 -17.4703 -19.1096
ltibia 27.7973
lfoot -20.8213 4.46372
ltoes -15.3554
150
root 2.58511 17.6273 17.4748 -5.16165 14.2485 0.603034
lowerback 7.32471 2.1136 1.8467
upperback 1.0009 2.80089 -6.02041
thorax -2.67542 1.37476 -7.62193
lowerneck 2.53364 -4.4634 0.3906
upperneck 21.5763 -6.47843 2.71244
head 6.21156 -2.88193 0.509829
rclavicle 3.18552e-014 -1.59028e-014
rhumerus 42.7715 -2.96415 -55.7208
rradius 46.9022
rwrist 3.13233
rhand -0.180301 7.87507
rfingers 7.12502
rthumb 25.4177 -20.4504
lclavicle 3.18552e-014 -1.59028e-014
lhumerus -40.0442 46.805 54.4566
lradius 16.0373
lwrist -47.3197
lhand -10.8584 -6.07898
lfingers 7.12502
lthumb 15.1569 23.346
rfemur 5.71221 16.1153 21.1615
rtibia 18.5266
rfoot -27.2461 -25.2454
rtoes -9.50839
lfemur -1.71332 -17.4711 -19.0699
ltibia 27.829
lfoot -20.7994 4.34097
ltoes -15.3082
151
root 2.5794 17.6273 17.4719 -5.1606 14.3609 0.603003
lowerback 7.34532 2.06572 1.67911
upperback 1.08722 2.72746 -5.98706
thorax -2.61724 1.34283 -7.48033
lowerneck 2.62213 -4.42715 0.513236
upperneck 21.7951 -6.42038 2.62909
head 6.25967 -2.84579 0.466198
rclavicle 2.32827e-014 0
rhumerus 40.9992 -3.33616 -55.6312
rradius 50.1163
rwrist 1.07216
rhand -0.00988617 8.16203
rfingers 7.12502
rthumb 25.5809 -20.1401
lclavicle 2.32827e-014 0
lhumerus -39.467 46.2505 55.3147
lradius 16.23
lwrist -46.4152
lhand -10.9574 -6.1999
lfingers 7.12502
lthumb 15.0615 23.2322
rfemur 5.70876 16.0163 21.1606
rtibia 18.5264
rfoot -27.2719 -25.2371
rtoes -9.44203
lfemur -1.78404 -17.4686 -19.0251
ltibia 27.8644
lfoot -20.7759 4.21743
ltoes -15.3091
152
root 2.57298 17.6266 17.4675 -5.18232 14.4963 0.602333
lowerback 7.41768 2.01598 1.49554
upperback 1.17355 2.64974 -5.94204
thorax -2.58938 1.30783 -7.31959
lowerneck 2.79674 -4.39531 0.639515
upperneck 21.9447 -6.36147 2.53674
head 6.2708 -2.8118 0.422012
rclavicle -3.62534e-014 2.54444e-014
rhumerus 39.1289 -3.69667 -55.4605
rradius 53.432
rwrist -1.08453
rhand 0.0992833 8.41844
rfingers 7.12502
rthumb 25.6855 -19.8686
lclavicle -3.62534e-014 2.54444e-014
lhumerus -38.8317 45.5198 56.3119
lradius 16.4463
lwrist -45.3183
lhand -11.1148 -6.27632
lfingers 7.12502
lthumb 14.9099 23.1671
rfemur 5.72343 15.8678 21.1605
rtibia 18.525
rfoot -27.2636 -25.2275
rtoes -9.43013
lfemur -1.85189 -17.4492 -18.9805
ltibia 27.9097
lfoot -20.7303 4.05595
ltoes -15.3186
153
root 2.56567 17.6265 17.4628 -5.18694 14.649 0.603596
lowerback 7.47109 1.95663 1.29585
upperback 1.27916 2.55902 -5.89754
thorax -2.5327 1.26738 -7.14732
lowerneck 2.95327 -4.36188 0.799327
upperneck 22.0877 -6.29835 2.42869
head 6.28148 -2.77411 0.366954
rclavicle 1.5207e-014 -1.90833e-014
rhumerus 37.2282 -4.09666 -55.2949
rradius 56.786
rwrist -3.11326
rhand 0.230542 8.71229
rfingers 7.12502
rthumb 25.8112 -19.5565
lclavicle 1.5207e-014 -1.90833e-014
lhumerus -38.247 44.9667 57.1928
lradius 16.6646
lwrist -44.3955
lhand -11.2056 -6.43561
lfingers 7.12502
lthumb 14.8225 23.0143
rfemur 5.71061 15.6925 21.1483
rtibia 18.5307
rfoot -27.2669 -25.2074
rtoes -9.42373
lfemur -1.9444 -17.4379 -18.9246
ltibia 27.9609
lfoot -20.7003 3.86799
ltoes -15.2715
154
root 2.557 17.6263 17.4568 -5.20113 14.838 0.60326
lowerback 7.56443 1.8874 1.0697
upperback 1.37614 2.45197 -5.84167
thorax -2.51028 1.21762 -6.94871
lowerneck 3.17359 -4.33128 0.939938
upperneck 22.1923 -6.23744 2.33602
head 6.27045 -2.73925 0.321774
rclavicle 7.15625e-014 -2.38542e-014
rhumerus 35.2285 -4.46415 -55.0506
rradius 60.2142
rwrist -5.15738
rhand 0.31589 8.9573
rfingers 7.12502
rthumb 25.8929 -19.2996
lclavicle 7.15625e-014 -2.38542e-014
lhumerus -37.6209 44.247 58.1914
lradius 16.9218
lwrist -43.2591
lhand -11.2698 -6.5133
lfingers 7.12502
lthumb 14.7606 22.9411
rfemur 5.70381 15.5039 21.1437
rtibia 18.553
rfoot -27.2929 -25.1855
rtoes -9.35642
lfemur -2.0502 -17.425 -18.8578
ltibia 28.0141
lfoot -20.6387 3.64173
ltoes -15.2715
